<?xml version="1.0" encoding="utf-8"?>
<!-- Generator: Adobe Illustrator 24.1.2, SVG Export Plug-In . SVG Version: 6.00 Build 0)  -->
<svg version="1.1" id="Layer_1" xmlns="http://www.w3.org/2000/svg" xmlns:xlink="http://www.w3.org/1999/xlink" x="0px" y="0px"
	 viewBox="0 0 300 300" style="enable-background:new 0 0 300 300;" xml:space="preserve">
<style type="text/css">
	.st0{fill:#F15A24;}
</style>
<g>
	<g>
		<g>
			<g>
				<path class="st0" d="M205.55,71.44h-63c1.65,3.9,2.87,8.02,3.62,12.31c0.59,3.28,0.89,6.66,0.89,10.11
					c0,31.98-26.01,57.99-57.99,57.99c-6.05,0-11.88-0.93-17.37-2.66c-4.34-1.36-8.47-3.23-12.31-5.52v73.93
					c0,28.54,23.22,51.76,51.77,51.76h94.39c28.54,0,51.76-23.22,51.76-51.76v-94.39C257.31,94.66,234.09,71.44,205.55,71.44z
					 M232.69,217.6c0,14.96-12.18,27.14-27.14,27.14h-94.39c-14.97,0-27.14-12.18-27.14-27.14v-50.92c1.06,0.05,2.12,0.07,3.19,0.07
					c8.06,0,15.82-1.3,23.08-3.69c0.04-0.02,0.09-0.03,0.13-0.05c28.44-9.43,49.26-35.7,50.6-66.94h44.53
					c14.96,0,27.14,12.17,27.14,27.14V217.6z"/>
			</g>
		</g>
		<g>
			<g>
				<path class="st0" d="M105.09,84.22c-12.45,1.94-23.03,9.77-28.77,20.52c-3.83-3.33-6.25-8.24-6.25-13.71
					c0-10.04,8.14-18.17,18.17-18.17C95.87,72.86,102.4,77.55,105.09,84.22z"/>
				<path class="st0" d="M148.1,83.75h-1.93c-0.75-4.29-1.97-8.41-3.62-12.31c-8.78-20.88-29.45-35.58-53.48-35.58
					c-31.98,0-57.99,26.02-57.99,58c0,21.14,11.37,39.67,28.31,49.81c3.84,2.29,7.97,4.16,12.31,5.52v3.28
					c-4.3-1.12-8.43-2.69-12.31-4.67c-20.02-10.16-33.75-30.94-33.75-54.93c0-34,27.57-61.56,61.57-61.56
					c26.46,0,49.02,16.7,57.73,40.13C146.4,75.37,147.47,79.49,148.1,83.75z"/>
			</g>
		</g>
		<g>
			<g>
				<path class="st0" d="M88.24,109.2c-4.56,0-8.73-1.68-11.92-4.46c5.74-10.75,16.32-18.58,28.77-20.52
					c0.85,2.1,1.32,4.4,1.32,6.81C106.41,101.06,98.28,109.2,88.24,109.2z"/>
				<path class="st0" d="M148.78,92.87c0,34.01-27.57,61.57-61.57,61.57c-5.36,0-10.55-0.69-15.51-1.97v-3.28
					c5.49,1.73,11.32,2.66,17.37,2.66c31.98,0,57.99-26.01,57.99-57.99c0-3.45-0.3-6.83-0.89-10.11h1.93
					C148.54,86.73,148.78,89.77,148.78,92.87z"/>
			</g>
		</g>
	</g>
	<path class="st0" d="M157.88,71.44c-9.45-28.97-36.72-49.96-68.81-49.96c-39.91,0-72.38,32.47-72.38,72.38
		c0,29.34,17.55,54.65,42.7,66c9.06,4.09,19.11,6.37,29.68,6.37c7.38,0,14.51-1.11,21.22-3.17c0.04-0.02,0.09-0.03,0.13-0.05
		c28.85-8.91,50.03-35.42,50.99-66.94c0.02-0.73,0.03-1.47,0.03-2.21C161.44,86.04,160.19,78.5,157.88,71.44z M142.55,71.44
		c1.65,3.9,2.87,8.02,3.62,12.31c0.59,3.28,0.89,6.66,0.89,10.11c0,31.98-26.01,57.99-57.99,57.99c-6.05,0-11.88-0.93-17.37-2.66
		c-4.34-1.36-8.47-3.23-12.31-5.52C42.45,133.53,31.08,115,31.08,93.86c0-31.98,26.01-58,57.99-58
		C113.1,35.86,133.77,50.56,142.55,71.44z"/>
	<path class="st0" d="M106.41,91.03c0,10.03-8.13,18.17-18.17,18.17c-4.56,0-8.73-1.68-11.92-4.46c-3.83-3.33-6.25-8.24-6.25-13.71
		c0-10.04,8.14-18.17,18.17-18.17c7.63,0,14.16,4.69,16.85,11.36C105.94,86.32,106.41,88.62,106.41,91.03z"/>
</g>
</svg>
